HIERARCHY
ROOT Hips
{
	OFFSET -14.64140 90.27770 -84.91600
	CHANNELS 6 Xposition Yposition Zposition Zrotation Xrotation Yrotation
	JOINT Spine
	{
		OFFSET 0.00000 13.20850 -1.60436
		CHANNELS 3 Zrotation Xrotation Yrotation
		JOINT Spine1
		{
			OFFSET 0.00000 8.61716 0.00000
			CHANNELS 3 Zrotation Xrotation Yrotation
			JOINT Spine2
			{
				OFFSET 0.00000 8.61717 0.00000
				CHANNELS 3 Zrotation Xrotation Yrotation
				JOINT Spine3
				{
					OFFSET 0.00000 8.61717 0.00000
					CHANNELS 3 Zrotation Xrotation Yrotation
					JOINT Neck
					{
						OFFSET 0.00000 11.07920 1.10792
						CHANNELS 3 Zrotation Xrotation Yrotation
						JOINT Neck1
						{
							OFFSET 0.00000 7.08032 0.00000
							CHANNELS 3 Zrotation Xrotation Yrotation
							JOINT Head
							{
								OFFSET 0.00000 7.08031 0.00000
								CHANNELS 3 Zrotation Xrotation Yrotation
								End site
								{
									OFFSET 0.00000 0.00000 0.00000
								}
							}
						}
					}
					JOINT RightShoulder
					{
						OFFSET -0.01000 7.91373 5.19711
						CHANNELS 3 Zrotation Xrotation Yrotation
						JOINT RightArm
						{
							OFFSET -18.41580 0.00000 0.00000
							CHANNELS 3 Zrotation Xrotation Yrotation
							JOINT RightForeArm
							{
								OFFSET -29.11090 0.00000 0.00000
								CHANNELS 3 Zrotation Xrotation Yrotation
								JOINT RightHand
								{
									OFFSET -24.65040 0.00000 0.00000
									CHANNELS 3 Zrotation Xrotation Yrotation
									JOINT RightHandThumb1
									{
										OFFSET -5.35114 -0.85590 3.97906
										CHANNELS 3 Zrotation Xrotation Yrotation
										JOINT RightHandThumb2
										{
											OFFSET -4.52789 0.00000 0.00000
											CHANNELS 3 Zrotation Xrotation Yrotation
											JOINT RightHandThumb3
											{
												OFFSET -2.46976 0.00000 0.00000
												CHANNELS 3 Zrotation Xrotation Yrotation
												End site
												{
													OFFSET 0.00000 0.00000 0.00000
												}
											}
										}
									}
									JOINT RightHandIndex1
									{
										OFFSET -14.26970 0.00000 2.88139
										CHANNELS 3 Zrotation Xrotation Yrotation
										JOINT RightHandIndex2
										{
											OFFSET -5.48836 0.00000 0.00000
											CHANNELS 3 Zrotation Xrotation Yrotation
											JOINT RightHandIndex3
											{
												OFFSET -3.01859 0.00000 0.00000
												CHANNELS 3 Zrotation Xrotation Yrotation
												End site
												{
													OFFSET 0.00000 0.00000 0.00000
												}
											}
										}
									}
									JOINT RightHandMiddle1
									{
										OFFSET -14.26970 0.00000 -0.09147
										CHANNELS 3 Zrotation Xrotation Yrotation
										JOINT RightHandMiddle2
										{
											OFFSET -6.17441 0.00000 0.00000
											CHANNELS 3 Zrotation Xrotation Yrotation
											JOINT RightHandMiddle3
											{
												OFFSET -3.56743 0.00000 0.00000
												CHANNELS 3 Zrotation Xrotation Yrotation
												End site
												{
													OFFSET 0.00000 0.00000 0.00000
												}
											}
										}
									}
									JOINT RightHandRing1
									{
										OFFSET -12.69180 0.00000 -3.06433
										CHANNELS 3 Zrotation Xrotation Yrotation
										JOINT RightHandRing2
										{
											OFFSET -5.62556 0.00000 0.00000
											CHANNELS 3 Zrotation Xrotation Yrotation
											JOINT RightHandRing3
											{
												OFFSET -3.56744 0.00000 0.00000
												CHANNELS 3 Zrotation Xrotation Yrotation
												End site
												{
													OFFSET 0.00000 0.00000 0.00000
												}
											}
										}
									}
									JOINT RightHandPinky1
									{
										OFFSET -11.11390 0.00000 -6.03719
										CHANNELS 3 Zrotation Xrotation Yrotation
										JOINT RightHandPinky2
										{
											OFFSET -4.52789 0.00000 0.00000
											CHANNELS 3 Zrotation Xrotation Yrotation
											JOINT RightHandPinky3
											{
												OFFSET -2.46976 0.00000 0.00000
												CHANNELS 3 Zrotation Xrotation Yrotation
												End site
												{
													OFFSET 0.00000 0.00000 0.00000
												}
											}
										}
									}
								}
							}
						}
					}
					JOINT LeftShoulder
					{
						OFFSET 0.01000 7.91373 5.19711
						CHANNELS 3 Zrotation Xrotation Yrotation
						JOINT LeftArm
						{
							OFFSET 18.41580 0.00000 0.00000
							CHANNELS 3 Zrotation Xrotation Yrotation
							JOINT LeftForeArm
							{
								OFFSET 29.11090 0.00000 0.00000
								CHANNELS 3 Zrotation Xrotation Yrotation
								JOINT LeftHand
								{
									OFFSET 24.65040 0.00000 0.00000
									CHANNELS 3 Zrotation Xrotation Yrotation
									JOINT LeftHandThumb1
									{
										OFFSET 5.35114 -0.85590 3.97906
										CHANNELS 3 Zrotation Xrotation Yrotation
										JOINT LeftHandThumb2
										{
											OFFSET 4.52789 0.00000 0.00000
											CHANNELS 3 Zrotation Xrotation Yrotation
											JOINT LeftHandThumb3
											{
												OFFSET 2.46977 0.00000 0.00000
												CHANNELS 3 Zrotation Xrotation Yrotation
												End site
												{
													OFFSET 0.00000 0.00000 0.00000
												}
											}
										}
									}
									JOINT LeftHandIndex1
									{
										OFFSET 14.26970 0.00000 2.88139
										CHANNELS 3 Zrotation Xrotation Yrotation
										JOINT LeftHandIndex2
										{
											OFFSET 5.48836 0.00000 0.00000
											CHANNELS 3 Zrotation Xrotation Yrotation
											JOINT LeftHandIndex3
											{
												OFFSET 3.01859 0.00000 0.00000
												CHANNELS 3 Zrotation Xrotation Yrotation
												End site
												{
													OFFSET 0.00000 0.00000 0.00000
												}
											}
										}
									}
									JOINT LeftHandMiddle1
									{
										OFFSET 14.26970 0.00000 -0.09147
										CHANNELS 3 Zrotation Xrotation Yrotation
										JOINT LeftHandMiddle2
										{
											OFFSET 6.17440 0.00000 0.00000
											CHANNELS 3 Zrotation Xrotation Yrotation
											JOINT LeftHandMiddle3
											{
												OFFSET 3.56744 0.00000 0.00000
												CHANNELS 3 Zrotation Xrotation Yrotation
												End site
												{
													OFFSET 0.00000 0.00000 0.00000
												}
											}
										}
									}
									JOINT LeftHandRing1
									{
										OFFSET 12.69180 0.00000 -3.06433
										CHANNELS 3 Zrotation Xrotation Yrotation
										JOINT LeftHandRing2
										{
											OFFSET 5.62556 0.00000 0.00000
											CHANNELS 3 Zrotation Xrotation Yrotation
											JOINT LeftHandRing3
											{
												OFFSET 3.56744 0.00000 0.00000
												CHANNELS 3 Zrotation Xrotation Yrotation
												End site
												{
													OFFSET 0.00000 0.00000 0.00000
												}
											}
										}
									}
									JOINT LeftHandPinky1
									{
										OFFSET 11.11390 0.00000 -6.03719
										CHANNELS 3 Zrotation Xrotation Yrotation
										JOINT LeftHandPinky2
										{
											OFFSET 4.52789 0.00000 0.00000
											CHANNELS 3 Zrotation Xrotation Yrotation
											JOINT LeftHandPinky3
											{
												OFFSET 2.46976 0.00000 0.00000
												CHANNELS 3 Zrotation Xrotation Yrotation
												End site
												{
													OFFSET 0.00000 0.00000 0.00000
												}
											}
										}
									}
								}
							}
						}
					}
					JOINT pCube4
					{
						OFFSET 0.00000 10.91090 1.10792
						CHANNELS 3 Zrotation Xrotation Yrotation
						End site
						{
							OFFSET 0.00000 0.00000 0.00000
						}
					}
				}
			}
		}
	}
	JOINT RightUpLeg
	{
		OFFSET -9.98441 0.00000 0.00000
		CHANNELS 3 Zrotation Xrotation Yrotation
		JOINT RightLeg
		{
			OFFSET 0.00000 -42.11790 0.00000
			CHANNELS 3 Zrotation Xrotation Yrotation
			JOINT RightFoot
			{
				OFFSET 0.00000 -45.00020 -0.00001
				CHANNELS 3 Zrotation Xrotation Yrotation
				JOINT RightForeFoot
				{
					OFFSET 0.00000 -3.74820 0.00000
					CHANNELS 3 Zrotation Xrotation Yrotation
					JOINT RightToeBase
					{
						OFFSET 0.00000 0.06325 14.43120
						CHANNELS 3 Zrotation Xrotation Yrotation
						End site
						{
							OFFSET 0.00000 0.00000 0.00000
						}
					}
				}
			}
		}
	}
	JOINT LeftUpLeg
	{
		OFFSET 9.98441 0.00000 0.00000
		CHANNELS 3 Zrotation Xrotation Yrotation
		JOINT LeftLeg
		{
			OFFSET 0.00000 -42.11800 0.00000
			CHANNELS 3 Zrotation Xrotation Yrotation
			JOINT LeftFoot
			{
				OFFSET 0.00000 -45.00070 0.00000
				CHANNELS 3 Zrotation Xrotation Yrotation
				JOINT LeftForeFoot
				{
					OFFSET 0.00000 -3.74824 0.00000
					CHANNELS 3 Zrotation Xrotation Yrotation
					JOINT LeftToeBase
					{
						OFFSET 0.00000 0.06325 14.43110
						CHANNELS 3 Zrotation Xrotation Yrotation
						End site
						{
							OFFSET 0.00000 0.00000 0.00000
						}
					}
				}
			}
		}
	}
}
MOTION
Frames: 4
Frame Time: 0.050000
-0.026379822363024632 -0.027651540701061336 -0.026453877205064442 0.015810952497142348 0.01700879728626053 0.010214145415234762 -3.972350699891274 0.6783136322066435 -0.7072141180116378 -1.0832560306455308 3.5467557527966855 0.36722795227350946 -1.2510307611842115 -2.395754537849575 -2.2176220464140566 -1.6263349211088802 0.23939200703398175 -0.9094352993677919 -1.3646230415482294 13.245360146804888 5.132612247014389 0.4234978410514427 -0.23397131892340495 12.275706679076547 -1.0798729580775421 -15.572694858540341 0.9493179066760232 -6.496300214824199 2.4856266610921938 -15.43923754677681 68.24605473466748 13.851958789146769 -2.696233809027739 -11.394453655212187 -2.57707092104842 90.46359431986671 25.81443881317071 -0.5675680106051889 -6.469757308033968 4.568022586743701 -0.11979000430869956 -1.5877346626017816 0.0014457930278080255 0.040759582497272975 -56.21257604989318 0.04511515898101728 0.0142457296460499 -56.2606110223348 -38.731524548637765 0.004106725077112747 0.018223486927376176 0.004125816734378585 0.005009272654701554 0.04191861727646648 -0.021124533202777785 -0.03965372363311514 -0.0006714616428953547 -36.697165044178924 -0.04459682726067271 -0.04258223659984704 0.005289814516838383 -0.0136382882456741 0.006563135107870952 -0.022323943775308684 0.046498200042069185 0.005703165841263132 -19.762816170119514 0.008885346434901222 0.032347626580241914 -0.027866783878936485 0.02540149777885715 3.928677281422618e-05 -0.04918719106992257 0.012483596213392926 0.011940712104498099 24.072630229788476 0.03248367596467445 -0.011519489217693468 28.896149538713754 0.0247910819830866 -0.016164603808659687 28.872792911095775 0.02132860218876124 -0.03206561931347967 9.396193427200929 2.04707089472328 12.928726662908009 -70.77662862307794 31.152925336185273 -9.51272308447502 -12.760593587929883 -9.645673199942157 -64.5321520114447 -12.55828077591531 -2.8753690155279825 3.7737624573723973 -0.5116454290789194 0.09081341544764532 -8.079286398975107 0.028773029689843483 0.028245388753627036 44.54392601044468 0.03008903036162279 0.04053616116229115 44.588429660664644 12.492725431127118 -0.02250917235425299 0.034439117511333335 0.011934684067061486 0.020861741964468432 -0.011547318711179148 -0.019613115278712075 -0.03686787764345974 0.024452874625362175 11.117834656544895 0.027947229483944878 0.006627236553552535 0.013048040954039644 -0.017574018973125435 -0.008590877072037787 -0.006790027532669086 0.0016351368109045544 0.032715993433303614 4.81534534200283 -0.012593870149250464 0.027798441246976776 -0.018314631074086263 0.02023310497162533 0.007911891312000431 -0.009485468440539378 0.008381777864673326 0.02509323145381849 -5.576751273112676 0.026878380406903817 0.040497299721554976 -6.74979548593673 0.031727438970430615 0.021368345653493645 -6.7283083456243356 -0.03789578495698948 0.049986790825311524 -0.013227466027491398 0.011499632557089055 0.04803054578725094 8.028871460123696 3.4516482336503795 -19.201803474459624 -0.028602372132300307 10.437662170494416 0.06102481966222137 -5.607189414886682 -15.64673463529722 3.225984611590833 0.0041867719124717906 -0.00016213606745592402 -0.010418742504110127 0.03330217739959919 4.656977760627966 -0.041366221710674944 12.441854814656569 -8.245077836903814 6.906361625893344 0.027979792834507484 46.38428120785724 -0.04450653662704714 -4.35146316368965 -14.76880545743635 -3.8400721678422367 -0.030507794017072414 0.0048291353127147526 -0.04617521089579305 -0.012496060202992173 -10.722500783363724 -0.047998235673075554 
-0.03864346879074623 -0.020100990244801126 -0.007905870866883087 0.02938506103675849 0.006252329239096414 -0.007245939502472465 -3.7032202472985545 0.608557314537302 -0.748848943507536 -1.0940907532100896 3.549995844558944 0.35601769641528513 -1.2378956125687965 -2.383815693309459 -2.3336469919664524 -1.5411904885881254 0.21370231577949408 -0.8991949531355811 -1.4040360019942724 13.274006408353895 5.162785513326156 0.3707940781266117 0.009123583080258974 12.340671209837549 -1.125646857722933 -15.199724099776235 1.0334505446309328 -6.4885217518441785 2.4820463650087126 -15.407316735987347 67.52667739913787 14.875171835706302 -2.158467732674578 -14.778752234269067 -2.9139855057485566 91.19330975223974 25.997214327031244 -0.5522624796974204 -6.7795415173574085 4.578070624379317 -0.1616554223546616 -1.614867475796091 0.0009723455221638443 0.025866193667566408 -56.21612380337161 0.026621249920843613 0.011131330042191653 -56.20836313139385 -38.74975830741407 -0.03334766881691093 -0.004830487067303061 -0.020920970093508115 0.0355457603232811 -0.04707476302898875 -0.018099083657446533 0.008619932547592524 0.00658024727713357 -36.733031645251614 0.01334022426485137 -0.047956569081562775 0.04144757232701026 0.002610695805942105 -0.001704924328406136 0.024132530338074935 0.04809066174961428 0.022596475716429212 -19.79625835808113 0.031697996844523284 -0.0032386107222514174 0.04368066708825947 -0.018153710206498325 -0.005071848552302001 -0.01804948906475516 0.008232610156873557 -0.017687793479196683 24.008829005502296 -0.0442233301189216 -0.03917828196040621 28.84299729880394 0.000499582264945913 0.03221795810015538 28.907388230638418 0.006524451558342739 0.012575026046217658 9.608720692606557 2.1239474162333907 12.879559529303583 -70.65430577192248 30.55691940965449 -10.862288055624958 -12.321106717362147 -10.900034513155154 -65.34839609957507 -12.579211425777514 -3.545314184181273 4.2685698368225875 -0.4350271434558276 0.09501427710422447 -8.161202699681212 -0.0008146049529417446 0.00292252133539357 44.58331233273457 -0.02891202089773129 -0.04080725093649092 44.539828897015354 12.481957507941717 0.0326898964988843 -0.019230093611015235 -0.018267777450098697 -0.02134349185214731 -0.014290479694244273 0.032026615987454356 0.020864564291834923 0.02899299934958329 11.141630761929466 -0.016351484572701837 -0.008607877844568953 0.027438002704419946 0.042373438327166064 -0.02368051561129235 -0.0028847222159279905 -0.03059680654264665 -0.01234088075337965 4.800041769378139 -0.03458230571325739 -0.015532632129144266 -0.04698403104986006 -0.018330265247747123 0.016276975982115027 -0.026272540380489498 0.0014868162815230975 0.04348269384614002 -5.605240367840933 -0.011232154780827432 -0.03241522302902899 -6.741017700581004 0.0023501333535629024 0.03518774084477981 -6.695479872670243 0.026879428391401457 -0.020399403183903375 0.01927772816638792 0.04064491937798571 -0.023929733663277004 8.01925318322652 3.5132932071368694 -19.231065935078156 -0.012380453057736763 10.421387850186413 -0.028743527329695023 -5.639775503986694 -15.66239797153968 3.221867012748399 -0.020957730906917733 -0.0402568256098726 -0.03857927565822071 -0.010184248856847782 4.70642973256228 -0.006738060735365487 12.500416264349113 -8.225830327318741 6.885190341920689 0.02419649852950203 46.39742556985286 -0.0275252821886011 -4.276163627512071 -14.769800458199464 -3.800484265213217 -0.003879024822510385 -0.010619817596990655 -0.014769003124409204 0.0031822274272387614 -10.752766581086151 -0.016788256227936213 
-0.029742560716875307 -0.029514416003313892 0.0386614339375325 0.020985327903340095 -0.0023391587426032793 -0.02799256307997404 -3.405938082603931 0.5746715454030693 -0.8247361805794526 -1.0889881556207146 3.476464669749165 0.32335944059260174 -1.2182675793443463 -2.399506766080353 -2.312967172701231 -1.4252887394656284 0.2441188881724459 -0.8689706270831243 -1.2880334451516893 13.340601311099237 4.85211196330423 0.41136761978709635 0.2697917111470766 11.682507096936824 -1.0640784697194672 -14.811870255149843 0.97013674069685 -6.492271002516083 2.4027421022027706 -15.400296476470551 67.01735871305858 16.320160452644835 -1.5213133960693805 -17.533400191663087 -2.979518241000876 91.7902032589334 26.15685574824578 -0.5738513548540558 -7.167336849505789 4.523079819399881 -0.13075457507944527 -1.589127890224641 -0.010176611020933117 0.03621084220458621 -56.24747927335315 -0.006632094348981759 -0.02076154064886647 -56.26392045877424 -38.749519051556966 0.011475596843001864 0.0034098246059615185 -0.031046256986640763 -0.017027039809043285 -0.02043820499043587 0.04827967015790259 0.012691469100263864 0.025552545494414592 -36.66242136293814 0.04567742800627549 0.048238240504262016 -0.04028440464382204 -0.005898962008706693 -0.03880647403191611 0.03966793960105622 0.007038098360576517 0.02272687112476818 -19.80629014952569 -0.00025365066496856373 0.019073596968436676 -0.02248067801090524 -0.022370301155637894 0.02579896276496128 -0.003492972706806642 -0.0015307625290988398 -0.016789296898390683 24.076905265245657 -0.015681764847718355 0.004078337655019588 28.84253747867944 -0.008827732057885349 -0.005890657608220229 28.861024363404606 0.03487056365088821 0.005315794747209798 9.588996013672462 2.1625632901488436 12.865447030671108 -70.41228149242727 30.342651472486562 -11.53805815844903 -12.381696250546861 -11.187991081779474 -66.28891518243307 -13.163614955274985 -4.3681831057345235 4.729887632200785 -0.5200388487137014 0.0969138386581948 -8.122465689113096 -0.018597886485917186 0.0067058383911804895 44.54405979443985 0.025722166352269767 0.012472965663756393 44.54967587229124 12.431658659185139 -0.04455040035487827 0.0031091722313806103 0.006434332978387746 -0.020666924656632602 0.028050364421899808 -0.025256041888586586 -0.01537051184148389 -0.04875782775814112 11.145750440150811 -0.009722523747273283 -0.026418707467989938 0.01807624174914422 0.022055804843046267 -0.03879439077219078 -0.0027180773816137985 -0.0038883748768455124 -0.03932037253358663 4.778770582045504 0.04622561973781231 -0.03100382550142571 0.03917267255819966 0.019933288601225004 0.03611036250476599 0.014557448072697496 -0.029978605802287082 -0.013637832921006636 -5.633891635235673 -0.009313341509128228 0.021658236402618686 -6.738624521526495 -0.025139830744319806 -0.02821792643542606 -6.690762286152455 0.008317661767948695 0.02772775752969163 -0.005532436670936116 -0.016703982877112125 0.037303739276359715 8.036583452757775 3.448792699552854 -19.237513270130112 0.03948853312000586 10.35937913589113 -0.010853232766978433 -5.647790103027752 -15.657179590524075 3.149072723625976 -0.004259920476975465 0.03793820642893207 -0.004347040108783489 0.014303437321938775 4.657897888717967 0.011667425595158543 12.447786503116408 -8.24844802397804 6.842948340267726 -0.010335533929939156 46.3751424617466 -0.007828051564866056 -4.332811182733137 -14.702080098061561 -3.796129964911192 0.04181321694765185 0.019891915992777058 0.007034556262245994 0.0426392964804219 -10.738643355052655 0.015297042746266115 
0.019489955444018596 -0.042568639750327826 0.004033603193165385 0.03989148423508013 0.04972844245685538 -0.024169521358365736 -3.0919086867863674 0.4751892033301238 -0.8017347239663518 -0.9854467314517804 3.4676044010884213 0.3748279942035977 -1.1690004150037874 -2.3361759697242404 -2.184791004481121 -1.2778715568621852 0.23313360084588158 -0.8711523002814596 -1.1971828254389214 13.361108113089749 4.41549066298725 0.40993897125231504 0.43435013807012784 10.539254493194601 -1.0256724928060552 -14.438451147159313 0.8388708361849456 -6.370930447598904 2.4458901296985243 -15.386493166152219 66.79162981216467 18.381514195201767 -0.8209236136030601 -19.077881225780754 -2.748326826377596 92.60620297159029 26.29912155935279 -0.4891689029325976 -7.568614876688125 4.52045357160568 -0.12877956744701038 -1.6184612604897957 -0.0008520246310080992 -0.04748630598174321 -56.23140235876219 0.022926197230001437 -0.017460675613961144 -56.23038420045269 -38.71998730360621 -0.012457681078471821 0.02565150634031197 -0.03102522039793316 -0.01758831438215791 0.033869163226357184 -0.016642930903418396 -0.046099463080427804 0.0009348238134366995 -36.71870894502821 -0.04781181039570385 0.0011511214623957577 0.004376537425620695 0.013159106882632783 0.04699057009071435 0.015343191772060952 0.0026838648739339966 0.04927834564782568 -19.80175598799044 0.0392360249242666 0.03738177572141538 0.012060151865659001 0.012790196668091955 0.03453549142828515 -0.02310599371345236 -0.0301498164762657 -0.03143552035978429 24.05978280338752 0.013731006294412481 0.03278129814484347 28.89239484198829 0.029999558654534294 -0.035189389222241636 28.875440533089403 0.047603315723171696 -0.010885201339754909 9.415505634811929 2.098753922779675 12.885006749920146 -70.13854359823137 30.425908149135232 -11.67724678894798 -12.864321947705706 -10.846377008163268 -66.73503723994124 -13.596379944782784 -4.8083699728081015 5.040373230980512 -0.45244995738931354 0.04291349187589902 -8.123352297844253 0.019164847995530684 0.03324421540775337 44.532846245586114 0.01035314594999443 -0.044746121398060834 44.574310512679475 12.457023542799016 -0.01652729686993724 0.020581718500395887 -0.00935635039786721 -0.004484866306535429 -0.024455578963318333 -0.04257653253537628 0.032237187424833974 -0.017241981840403965 11.148801287645533 0.02818209684481422 -0.02377730208561234 -0.04130160317206768 0.03352437917529615 -0.01934334857853323 -0.012391985460597534 0.0391312276916584 -0.022418619723561073 4.818930904316759 0.019931054546788493 -0.018404751993406347 0.04299890805463844 -0.03025124884493008 -0.027989027724153407 0.004658895779085535 0.030736418891220484 -0.0242074310452164 -5.615960006981108 -0.045398979132086785 -0.03562789006646901 -6.748769107452363 -0.022569991960861315 0.007216604759502994 -6.747420655971794 0.026121919428219127 -0.04467938095612668 -0.012757681702089824 -0.03483265557161156 -0.01291434494607291 8.073136893811867 3.4575290597511112 -19.200222018796588 -0.03815376240761952 10.384332739959389 0.011281757918443453 -5.616769469343332 -15.679719970095041 3.2195427773127703 -0.03634445701814139 -0.047844317327457676 -0.004045179440391829 -0.023503571271842775 4.6893928784693895 0.01072592099356274 12.442861293507589 -8.193691121416974 6.836985649230532 -0.028138647992491057 46.40024408923685 -0.03312006181734881 -4.353329187163647 -14.750857069192232 -3.8787065657690563 -0.007486971810413478 -0.001534250144438171 -0.0450048414685122 -0.03295536266130408 -10.753612170527793 0.0491104987303917 
